<svg xmlns="http://www.w3.org/2000/svg" version="1.1" xmlns:xlink="http://www.w3.org/1999/xlink" width="512" height="512" x="0" y="0" viewBox="0 0 24 24" style="enable-background:new 0 0 512 512" xml:space="preserve" class=""><g><path fill="#a78bfa" d="M12 17.9V21l-8-4.2V8.3l2-1.1v7.6z" opacity="1" data-original="#d0ccff" class=""></path><g fill="#6f51f8"><path d="M19 9.1v1.4c0 .6.4 1 1 1s1-.4 1-1V7.8c0-.4-.2-.7-.5-.9l-8-4.3c-.3-.2-.6-.2-.9 0l-8 4.3c-.4.1-.6.5-.6.9v8.5c0 .4.2.7.5.9l8 4.3c.1.1.3.1.5.1s.4 0 .5-.1c.3-.2.5-.5.5-.9v-8.4zm-1.4-1.5L12 10.4l-1.7-.9 5.6-2.8zm-5.6-3 1.7.9L8 8.4l-1.6-.8zm-7 11V9.1l6 3v6.7z" fill="#4c1d95" opacity="1" data-original="#6f51f8" class=""></path><path d="m17.8 15 .3-.2c.4-.4.5-1 .1-1.4s-1-.5-1.4-.1l-2.4 2c-.3.3-.4.7-.3 1.1s.5.7.9.7h6c.6 0 1-.4 1-1s-.4-1-1-1h-3.2zM21 18h-6c-.6 0-1 .4-1 1s.4 1 1 1h3.2l-.2.2c-.4.4-.5 1-.1 1.4.2.2.5.4.8.4.2 0 .5-.1.6-.2l2.4-2c.3-.3.4-.7.3-1.1-.2-.4-.6-.7-1-.7z" fill="#4c1d95" opacity="1" data-original="#6f51f8" class=""></path></g></g></svg>