<svg xmlns="http://www.w3.org/2000/svg" viewBox="0 0 1920 626" preserveAspectRatio="xMidYMid" width="1920" height="626" xmlns:xlink="http://www.w3.org/1999/xlink" style="shape-rendering:auto;display:block;background-position-x:0%;background-position-y:0%;background-size:auto;background-origin:padding-box;background-clip:border-box;background:scroll rgb(255, 255, 255) none  repeat;width:1920px;height:626px;;animation:none"><g><linearGradient y2="0" y1="0" x2="1" x1="0" id="lg-ca780xlr0a"><stop offset="0" stop-color="#4c1d95"></stop>

  
<stop offset="1" stop-color="#0c4a6e"></stop></linearGradient>
<path opacity="0.4" fill="url(#lg-ca780xlr0a)" d="M 0 0 L 0 567.12 Q 192 587.8 384 544.68 T 768 507.57 T 1152 502.89 T 1536 376.28 T 1920 334.17 L 1920 0 Z" style="fill:url('#lg-ca780xlr0a');opacity:0.4;;animation:none"></path>
<path opacity="0.4" fill="url(#lg-ca780xlr0a)" d="M 0 0 L 0 604.309 Q 192 566.457 384 544.791 T 768 517.247 T 1152 427.663 T 1536 434.309 T 1920 387.651 L 1920 0 Z" style="fill:url('#lg-ca780xlr0a');opacity:0.4;;animation:none"></path>
<path opacity="0.4" fill="url(#lg-ca780xlr0a)" d="M 0 0 L 0 634.483 Q 192 563.079 384 526.338 T 768 474.024 T 1152 460.243 T 1536 431.025 T 1920 396.509 L 1920 0 Z" style="fill:url('#lg-ca780xlr0a');opacity:0.4;;animation:none"></path>
<path opacity="0.4" fill="url(#lg-ca780xlr0a)" d="M 0 0 L 0 569.053 Q 192 580.836 384 536.63 T 768 504.08 T 1152 451.435 T 1536 426.056 T 1920 328.071 L 1920 0 Z" style="fill:url('#lg-ca780xlr0a');opacity:0.4;;animation:none"></path>
<path opacity="0.4" fill="url(#lg-ca780xlr0a)" d="M 0 0 L 0 569.955 Q 192 603.549 384 573.515 T 768 514.945 T 1152 434.299 T 1536 427.583 T 1920 381.909 L 1920 0 Z" style="fill:url('#lg-ca780xlr0a');opacity:0.4;;animation:none"></path>
<g></g></g><!-- [ldio] generated by https://loading.io --></svg>